<svg xmlns="http://www.w3.org/2000/svg" viewBox="0 0 64 64">
  <!-- Phương án A "Trang ghi có dấu giờ": tờ giấy gấp góc + mỗi dòng có chấm thời gian (xanh: đã lưu, vàng: chưa lưu) -->
  <defs><linearGradient id="ga" x1="6" y1="2" x2="60" y2="64" gradientUnits="userSpaceOnUse"><stop offset="0" stop-color="#5b50ec"/><stop offset="1" stop-color="#7c3aed"/></linearGradient></defs>
  <rect width="64" height="64" rx="16" fill="url(#ga)"/>
  <path d="M19 11h19.5L51 23.5V48a5 5 0 0 1-5 5H19a5 5 0 0 1-5-5V16a5 5 0 0 1 5-5z" fill="#fffaf0"/>
  <path d="M38.5 11v8.5a4 4 0 0 0 4 4H51z" fill="#fbbf24"/>
  <path d="M27.5 30.5h14M27.5 39h14M27.5 47.5h8" stroke="#4f46e5" stroke-width="3.6" stroke-linecap="round"/>
  <circle cx="21.5" cy="30.5" r="2.7" fill="#14b8a6"/><circle cx="21.5" cy="39" r="2.7" fill="#14b8a6"/><circle cx="21.5" cy="47.5" r="2.7" fill="#f59e0b"/>
</svg>
